<?xml version="1.0" encoding="UTF-8" standalone="no"?>
<!-- Created with Inkscape (http://www.inkscape.org/) -->

<svg
   width="512"
   height="512"
   viewBox="0 0 135.46667 135.46667"
   version="1.1"
   id="svg5"
   sodipodi:docname="drawing.svg"
   inkscape:version="1.2.1 (9c6d41e410, 2022-07-14)"
   inkscape:export-filename="drawing.png"
   inkscape:export-xdpi="96"
   inkscape:export-ydpi="96"
   xmlns:inkscape="http://www.inkscape.org/namespaces/inkscape"
   xmlns:sodipodi="http://sodipodi.sourceforge.net/DTD/sodipodi-0.dtd"
   xmlns="http://www.w3.org/2000/svg"
   xmlns:svg="http://www.w3.org/2000/svg">
  <sodipodi:namedview
     id="namedview7"
     pagecolor="#505050"
     bordercolor="#eeeeee"
     borderopacity="1"
     inkscape:showpageshadow="0"
     inkscape:pageopacity="0"
     inkscape:pagecheckerboard="0"
     inkscape:deskcolor="#505050"
     inkscape:document-units="mm"
     showgrid="false"
     inkscape:zoom="1.0544998"
     inkscape:cx="100.52159"
     inkscape:cy="275.96022"
     inkscape:window-width="1920"
     inkscape:window-height="1009"
     inkscape:window-x="-8"
     inkscape:window-y="-8"
     inkscape:window-maximized="1"
     inkscape:current-layer="layer1" />
  <defs
     id="defs2" />
  <g
     inkscape:label="Layer 1"
     inkscape:groupmode="layer"
     id="layer1"
     transform="translate(-40.412888,-65.624268)">
    <rect
       style="fill:#ffffff;fill-opacity:1;stroke-width:0.196355;stroke-linejoin:bevel"
       id="rect234"
       width="135.12656"
       height="135.12656"
       x="40.412888"
       y="65.624268" />
    <path
       style="fill:none;fill-opacity:1;stroke:#000000;stroke-width:13.6878;stroke-linejoin:bevel;stroke-dasharray:none;stroke-opacity:1"
       d="m 167.4776,92.781293 c -1.77993,-0.291979 -3.48792,-0.891524 -5.28583,-1.106611 -10.30112,-1.232329 -21.41187,-1.458774 -31.71503,-1.106609 -6.67411,0.228121 -14.29926,1.078877 -17.61947,6.639658 -0.50007,0.837552 -0.82137,1.744542 -1.32145,2.58209 -1.85691,3.110009 -2.21318,8.537989 -0.44048,11.803839 4.37521,8.06053 14.97564,11.06536 22.02431,16.96802 0.76027,0.63666 3.04519,5.79312 3.08341,5.90192 2.46605,7.02138 -1.95049,13.81255 -6.16681,19.55011 -4.19351,5.70652 -14.03281,12.68349 -21.58385,14.38594 -5.60374,1.2634 -14.464536,1.52066 -20.262356,1.84434 -3.820352,0.21329 -7.666195,0.26211 -11.452648,0.73775 -6.410985,0.80529 -36.416814,5.53306 -9.250223,2.95095"
       id="path1425"
       sodipodi:nodetypes="csssssscssssc" />
    <rect
       style="fill:#e8beac;fill-opacity:1;stroke:none;stroke-width:0.761004;stroke-linejoin:bevel;stroke-dasharray:none;stroke-opacity:1"
       id="rect3093"
       width="17.061802"
       height="29.109751"
       x="46.461395"
       y="172.14905"
       transform="matrix(1,0,0.01723882,0.9998514,0,0)" />
    <circle
       style="fill:#e8beac;fill-opacity:1;stroke:#000000;stroke-width:0.582612;stroke-linejoin:bevel;stroke-dasharray:none;stroke-opacity:1"
       id="path1577"
       cx="58.085403"
       cy="174.2562"
       r="8.405447" />
  </g>
</svg>
