<?xml version="1.0" encoding="UTF-8" standalone="no"?>
<!-- Created with Inkscape (http://www.inkscape.org/) -->

<svg
   width="210mm"
   height="297mm"
   viewBox="0 0 210 297"
   version="1.1"
   id="svg5"
   sodipodi:docname="drawing.svg"
   inkscape:version="1.2.1 (9c6d41e410, 2022-07-14)"
   inkscape:export-filename="drawing.png"
   inkscape:export-xdpi="96"
   inkscape:export-ydpi="96"
   xmlns:inkscape="http://www.inkscape.org/namespaces/inkscape"
   xmlns:sodipodi="http://sodipodi.sourceforge.net/DTD/sodipodi-0.dtd"
   xmlns="http://www.w3.org/2000/svg"
   xmlns:svg="http://www.w3.org/2000/svg">
  <sodipodi:namedview
     id="namedview7"
     pagecolor="#505050"
     bordercolor="#eeeeee"
     borderopacity="1"
     inkscape:showpageshadow="0"
     inkscape:pageopacity="0"
     inkscape:pagecheckerboard="0"
     inkscape:deskcolor="#505050"
     inkscape:document-units="mm"
     showgrid="false"
     inkscape:zoom="1.0544998"
     inkscape:cx="252.72647"
     inkscape:cy="295.87489"
     inkscape:window-width="1920"
     inkscape:window-height="1017"
     inkscape:window-x="-8"
     inkscape:window-y="-8"
     inkscape:window-maximized="1"
     inkscape:current-layer="layer1" />
  <defs
     id="defs2" />
  <g
     inkscape:label="Layer 1"
     inkscape:groupmode="layer"
     id="layer1">
    <rect
       style="fill:#ffffff;fill-opacity:1;stroke-width:0.119789;stroke-linejoin:bevel"
       id="rect234"
       width="82.435692"
       height="82.435692"
       x="40.412888"
       y="65.624268" />
    <path
       style="fill:none;fill-opacity:1;stroke:#000000;stroke-width:8.52011;stroke-linejoin:bevel;stroke-dasharray:none;stroke-opacity:1"
       d="m 115.91989,74.51993 c -1.01388,-0.198607 -1.98678,-0.606423 -3.0109,-0.752727 -5.8677,-0.838242 -12.19658,-0.992272 -18.065442,-0.752726 -3.801689,0.15517 -8.145105,0.733862 -10.036355,4.516358 -0.284855,0.569711 -0.46787,1.186654 -0.752726,1.756362 -1.057727,2.115455 -1.260665,5.807623 -0.25091,8.029083 2.492203,5.482844 8.530397,7.526761 12.545444,11.541808 0.433065,0.43306 1.734595,3.940532 1.756362,4.014542 1.404708,4.77601 -1.111035,9.39543 -3.512724,13.29817 -2.388696,3.88163 -7.993333,8.62743 -12.294534,9.78545 -3.191994,0.85938 -8.239263,1.03437 -11.541808,1.25454 -2.176137,0.14508 -4.366792,0.17829 -6.52363,0.50182 -3.651805,0.54777 -20.743655,3.76364 -5.269085,2.00727"
       id="path1425"
       sodipodi:nodetypes="csssssscssssc" />
    <rect
       style="fill:#e8beac;fill-opacity:1;stroke:none;stroke-width:0.59962;stroke-linejoin:bevel;stroke-dasharray:none;stroke-opacity:1"
       id="rect3093"
       width="17.061802"
       height="18.072405"
       x="42.800869"
       y="130.27193"
       transform="matrix(1,0,0.02776707,0.99961442,0,0)" />
    <circle
       style="fill:#e8beac;fill-opacity:1;stroke:#000000;stroke-width:0.582612;stroke-linejoin:bevel;stroke-dasharray:none;stroke-opacity:1"
       id="path1577"
       cx="55.074497"
       cy="130.84897"
       r="8.405447" />
  </g>
</svg>
